<?xml version="1.0" standalone="no"?>
<!DOCTYPE svg PUBLIC "-//W3C//DTD SVG 20010904//EN"
 "http://www.w3.org/TR/2001/REC-SVG-20010904/DTD/svg10.dtd">
<svg version="1.0" xmlns="http://www.w3.org/2000/svg"
 width="407.000000pt" height="493.000000pt" viewBox="0 0 407.000000 493.000000"
 preserveAspectRatio="xMidYMid meet">
<metadata>
Created by potrace 1.15, written by Peter Selinger 2001-2017
</metadata>
<g transform="translate(0.000000,493.000000) scale(0.100000,-0.100000)"
fill="#ffffff" stroke="none">
<path d="M1211 4583 l-37 -38 -172 -841 c-95 -462 -172 -862 -172 -889 0 -43
4 -52 40 -87 36 -33 47 -38 88 -38 58 0 108 29 126 73 8 17 48 203 91 412 42
209 79 388 81 398 5 16 31 17 360 17 l356 0 -6 -27 c-41 -204 -127 -750 -122
-776 8 -43 59 -94 105 -106 20 -5 313 -12 651 -16 l615 -7 35 24 c19 13 40 34
47 47 6 13 55 246 108 517 l97 493 -21 44 c-37 77 -36 77 -460 77 -365 0 -371
0 -371 20 0 11 18 120 40 241 22 122 40 223 40 225 0 2 178 4 396 4 438 0 447
1 485 64 40 66 14 157 -54 189 -31 15 -86 17 -499 17 -513 0 -512 0 -549 -65
-10 -18 -47 -194 -89 -430 -68 -375 -72 -402 -59 -440 8 -23 27 -48 46 -61 30
-20 45 -21 408 -26 207 -3 378 -8 381 -10 2 -3 -24 -151 -59 -329 l-64 -324
-462 2 c-255 1 -465 3 -467 6 -3 3 54 344 125 759 72 415 131 769 131 787 0
44 -25 88 -63 111 -31 19 -54 20 -561 20 l-528 0 -37 -37z m889 -240 c0 -5
-18 -111 -40 -238 -22 -126 -40 -234 -40 -238 0 -7 -690 1 -698 8 -4 3 84 439
93 463 3 9 82 12 345 12 187 0 340 -3 340 -7z"/>
<path d="M1040 2443 c-19 -7 -59 -44 -71 -64 -9 -18 -124 -532 -285 -1284 -73
-337 -104 -502 -101 -529 7 -48 48 -93 99 -107 25 -6 215 -9 531 -7 464 3 494
4 520 22 58 39 77 138 36 190 -44 56 -43 56 -484 56 -223 0 -405 4 -405 9 0 4
32 155 70 335 39 179 70 328 70 331 0 3 167 5 370 5 290 0 378 3 403 14 61 26
85 77 63 131 -28 66 -22 65 -424 65 l-364 0 5 23 c3 12 31 140 63 285 l57 262
532 0 533 0 -9 -37 c-4 -21 -80 -375 -169 -788 -112 -519 -160 -762 -156 -789
5 -47 46 -92 95 -106 48 -13 1024 -13 1072 0 109 30 132 182 37 240 -32 19
-49 20 -470 20 -255 0 -438 4 -438 9 0 5 74 354 165 776 91 422 165 784 165
804 0 50 -30 95 -82 120 -44 21 -49 21 -729 20 -376 0 -691 -3 -699 -6z"/>
</g>
</svg>
