<?xml version="1.0" encoding="UTF-8" standalone="no"?>
<!-- Created with Inkscape (http://www.inkscape.org/) -->

<svg
   version="1.1"
   id="svg2"
   width="2560"
   height="1440"
   viewBox="0 0 2560 1440"
   sodipodi:docname="7441812.ai"
   xmlns:inkscape="http://www.inkscape.org/namespaces/inkscape"
   xmlns:sodipodi="http://sodipodi.sourceforge.net/DTD/sodipodi-0.dtd"
   xmlns="http://www.w3.org/2000/svg"
   xmlns:svg="http://www.w3.org/2000/svg">
  <defs
     id="defs6">
    <clipPath
       clipPathUnits="userSpaceOnUse"
       id="clipPath18">
      <path
         d="M 0,1080 H 1920 V 0 H 0 Z"
         id="path16" />
    </clipPath>
    <clipPath
       clipPathUnits="userSpaceOnUse"
       id="clipPath222">
      <path
         d="M 550.389,746.923 H 798.738 V 294.214 H 550.389 Z"
         id="path220" />
    </clipPath>
    <clipPath
       clipPathUnits="userSpaceOnUse"
       id="clipPath258">
      <path
         d="m 1037.87,349.559 h 83.6 v -33.618 h -83.6 z"
         id="path256" />
    </clipPath>
    <clipPath
       clipPathUnits="userSpaceOnUse"
       id="clipPath290">
      <path
         d="m 212.945,701.828 h 71.489 v -32.479 h -71.489 z"
         id="path288" />
    </clipPath>
    <clipPath
       clipPathUnits="userSpaceOnUse"
       id="clipPath338">
      <path
         d="M 826.02,562.22 H 957.758 V 464.81 H 826.02 Z"
         id="path336" />
    </clipPath>
    <clipPath
       clipPathUnits="userSpaceOnUse"
       id="clipPath354">
      <path
         d="M 792.702,575.573 H 1060.87 V 303.087 H 792.702 Z"
         id="path352" />
    </clipPath>
    <clipPath
       clipPathUnits="userSpaceOnUse"
       id="clipPath430">
      <path
         d="m 233.608,551.898 h 129.8 V 410.19 h -129.8 z"
         id="path428" />
    </clipPath>
    <clipPath
       clipPathUnits="userSpaceOnUse"
       id="clipPath476">
      <path
         d="M 406.735,409.68 H 553.04 V 310.624 H 406.735 Z"
         id="path474" />
    </clipPath>
    <clipPath
       clipPathUnits="userSpaceOnUse"
       id="clipPath516">
      <path
         d="m 649.126,239.137 h 77.073 v -22.069 h -77.073 z"
         id="path514" />
    </clipPath>
  </defs>
  <sodipodi:namedview
     id="namedview4"
     pagecolor="#ffffff"
     bordercolor="#000000"
     borderopacity="0.25"
     inkscape:showpageshadow="2"
     inkscape:pageopacity="0.0"
     inkscape:pagecheckerboard="0"
     inkscape:deskcolor="#d1d1d1" />
  <g
     id="g8"
     inkscape:groupmode="layer"
     inkscape:label="7441812"
     transform="matrix(1.3333333,0,0,-1.3333333,0,1440)">
    <path
       d="M 0,0 H 1920 V 1080 H 0 Z"
       style="fill:#94b3f7;fill-opacity:1;fill-rule:nonzero;stroke:none"
       id="path10" />
    <g
       id="g12">
      <g
         id="g14"
         clip-path="url(#clipPath18)">
        <g
           id="g20"
           transform="translate(843.6677,961.2926)">
          <path
             d="m 0,0 h -94.028 c -12.278,0 -22.232,9.953 -22.232,22.231 v 0 c 0,12.279 9.954,22.232 22.232,22.232 H 0 c 12.278,0 22.231,-9.953 22.231,-22.232 v 0 C 22.231,9.953 12.278,0 0,0"
             style="fill:#292643;fill-opacity:1;fill-rule:nonzero;stroke:none"
             id="path22" />
        </g>
        <g
           id="g24"
           transform="translate(1829.3011,1003.5685)">
          <path
             d="m 0,0 h -26.076 c -3.467,0 -6.278,-2.81 -6.278,-6.278 v -7.579 h 18.497 c 3.467,0 6.278,-2.81 6.278,-6.277 V -38.631 H 0 c 3.467,0 6.277,2.81 6.277,6.277 V -6.278 C 6.277,-2.81 3.467,0 0,0"
             style="fill:#292643;fill-opacity:1;fill-rule:nonzero;stroke:none"
             id="path26" />
        </g>
        <g
           id="g28"
           transform="translate(1829.3011,1003.5685)">
          <path
             d="m 0,0 h -26.076 c -3.467,0 -6.278,-2.81 -6.278,-6.278 v -7.579 h 18.497 c 3.467,0 6.278,-2.81 6.278,-6.277 V -38.631 H 0 c 3.467,0 6.277,2.81 6.277,6.277 V -6.278 C 6.277,-2.81 3.467,0 0,0 Z"
             style="fill:none;stroke:#292643;stroke-width:2.855;stroke-linecap:butt;stroke-linejoin:miter;stroke-miterlimit:10;stroke-dasharray:none;stroke-opacity:1"
             id="path30" />
        </g>
        <g
           id="g32"
           transform="translate(1815.4443,989.7118)">
          <path
             d="m 0,0 h -18.497 v -18.497 c 0,-3.467 2.811,-6.277 6.278,-6.277 H 6.277 V -6.278 C 6.277,-2.811 3.467,0 0,0 Z"
             style="fill:none;stroke:#292643;stroke-width:2.855;stroke-linecap:butt;stroke-linejoin:miter;stroke-miterlimit:10;stroke-dasharray:none;stroke-opacity:1"
             id="path34" />
        </g>
        <g
           id="g36"
           transform="translate(1816.9935,381.9975)">
          <path
             d="m 0,0 h -175.847 c -11.943,0 -21.624,-9.681 -21.624,-21.624 0,-11.943 9.681,-21.624 21.624,-21.624 H 0 c 11.943,0 21.624,9.681 21.624,21.624 C 21.624,-9.681 11.943,0 0,0"
             style="fill:#f15b61;fill-opacity:1;fill-rule:nonzero;stroke:none"
             id="path38" />
        </g>
        <g
           id="g40"
           transform="translate(114.6275,740.2165)">
          <path
             d="m 0,0 c -19.747,-45.232 13.904,-472.018 38.623,-495.126 24.719,-23.108 900.693,21.156 917.687,38.143 16.994,16.987 64.887,467.313 29.353,521.939 C 950.13,119.581 32.443,74.315 0,0"
             style="fill:#a9c2fc;fill-opacity:1;fill-rule:nonzero;stroke:none"
             id="path42" />
        </g>
        <g
           id="g44"
           transform="translate(793.0416,704.0388)">
          <path
             d="M 0,0 C 0.585,2.795 1.24,5.575 1.961,8.338"
             style="fill:none;stroke:#ffffff;stroke-width:1.427;stroke-linecap:round;stroke-linejoin:miter;stroke-miterlimit:10;stroke-dasharray:none;stroke-opacity:1"
             id="path46" />
        </g>
        <g
           id="g48"
           transform="translate(800.1609,728.8226)">
          <path
             d="m 0,0 c 11.09,30.18 30.265,57.403 55.16,77.773 31.556,25.819 72.085,40.451 112.857,40.742 44.297,0.318 91.512,-19.058 112.011,-58.327 16.54,-31.686 12.112,-73.117 -10.751,-100.591 -8.097,-9.73 -18.667,-17.949 -31.03,-20.669 -12.363,-2.719 -26.589,1.002 -34.139,11.163 -11.118,14.962 -2.65,38.826 14.195,46.807 16.846,7.982 37.965,2.036 51.488,-10.794 13.522,-12.831 20.466,-31.236 23.727,-49.589 6.965,-39.202 -1.541,-80.94 -23.293,-114.289 -18.622,-28.55 -46.784,-50.695 -78.776,-62.393"
             style="fill:none;stroke:#ffffff;stroke-width:1.427;stroke-linecap:round;stroke-linejoin:miter;stroke-miterlimit:10;stroke-dasharray:17.244, 17.244;stroke-dashoffset:0;stroke-opacity:1"
             id="path50" />
        </g>
        <g
           id="g52"
           transform="translate(983.4441,485.9239)">
          <path
             d="M 0,0 C -2.732,-0.83 -5.486,-1.585 -8.262,-2.261"
             style="fill:none;stroke:#ffffff;stroke-width:1.427;stroke-linecap:round;stroke-linejoin:miter;stroke-miterlimit:10;stroke-dasharray:none;stroke-opacity:1"
             id="path54" />
        </g>
        <g
           id="g56"
           transform="translate(291.9873,424.8559)">
          <path
             d="m 0,0 c -34.755,-4.235 -69.815,13.946 -91.682,41.29 -21.867,27.343 -31.873,62.611 -34.588,97.518 -4.955,63.732 14.684,130.955 60.472,175.562 15.815,15.406 35.619,28.335 57.662,29.585 22.043,1.251 45.884,-12.397 50.338,-34.021 2.45,-11.897 -2.952,-26.461 -14.688,-29.594 -14.014,-3.742 -27.013,11.02 -28.621,25.436 -2.083,18.669 8.502,37.267 23.789,48.185 15.286,10.919 34.553,15.023 53.336,15.324 29.498,0.473 59.75,-8.373 81.902,-27.858 22.152,-19.485 35.035,-50.248 29.652,-79.255"
             style="fill:none;stroke:#ffffff;stroke-width:1.427;stroke-linecap:round;stroke-linejoin:miter;stroke-miterlimit:10;stroke-dasharray:17.129;stroke-dashoffset:0;stroke-opacity:1"
             id="path58" />
        </g>
        <g
           id="g60"
           transform="translate(176.9809,808.3219)">
          <path
             d="m 0,0 c -3.04,0 -3.496,-20.061 -3.496,-20.061 0,0 -13.678,-4.256 -13.83,-5.472 -0.152,-1.216 13.375,-2.279 13.375,-2.279 0,0 1.519,-21.734 3.191,-21.734 1.672,0 3.496,21.582 3.496,21.582 0,0 12.462,2.127 12.462,3.191 0,1.064 -12.158,4.56 -12.158,4.56 C 3.04,-20.213 1.52,0 0,0"
             style="fill:#ffffff;fill-opacity:1;fill-rule:nonzero;stroke:none"
             id="path62" />
        </g>
        <g
           id="g64"
           transform="translate(889.12,774.8383)">
          <path
             d="m 0,0 c -3.04,0 -3.496,-20.061 -3.496,-20.061 0,0 -13.678,-4.256 -13.83,-5.472 -0.152,-1.216 13.375,-2.279 13.375,-2.279 0,0 1.519,-21.734 3.191,-21.734 1.672,0 3.496,21.582 3.496,21.582 0,0 12.462,2.127 12.462,3.191 0,1.064 -12.158,4.56 -12.158,4.56 C 3.04,-20.213 1.52,0 0,0"
             style="fill:#ffffff;fill-opacity:1;fill-rule:nonzero;stroke:none"
             id="path66" />
        </g>
        <g
           id="g68"
           transform="translate(176.9809,401.4378)">
          <path
             d="m 0,0 c -3.04,0 -3.496,-20.061 -3.496,-20.061 0,0 -13.678,-4.256 -13.83,-5.472 -0.152,-1.216 13.375,-2.279 13.375,-2.279 0,0 1.519,-21.734 3.191,-21.734 1.672,0 3.496,21.582 3.496,21.582 0,0 12.462,2.127 12.462,3.191 0,1.064 -12.158,4.56 -12.158,4.56 C 3.04,-20.213 1.52,0 0,0"
             style="fill:#ffffff;fill-opacity:1;fill-rule:nonzero;stroke:none"
             id="path70" />
        </g>
        <g
           id="g72"
           transform="translate(1130.4247,497.5386)">
          <path
             d="m 0,0 c -3.04,0 -3.496,-20.061 -3.496,-20.061 0,0 -13.678,-4.256 -13.83,-5.472 -0.152,-1.216 13.374,-2.279 13.374,-2.279 0,0 1.52,-21.734 3.192,-21.734 1.672,0 3.496,21.582 3.496,21.582 0,0 12.462,2.127 12.462,3.191 0,1.064 -12.158,4.56 -12.158,4.56 C 3.04,-20.213 1.52,0 0,0"
             style="fill:#ffffff;fill-opacity:1;fill-rule:nonzero;stroke:none"
             id="path74" />
        </g>
        <g
           id="g76"
           transform="translate(256.7938,842.374)">
          <path
             d="m 0,0 c -1.606,0 -1.846,-10.597 -1.846,-10.597 0,0 -7.226,-2.248 -7.306,-2.89 -0.081,-0.643 7.065,-1.205 7.065,-1.205 0,0 0.802,-11.48 1.686,-11.48 0.883,0 1.846,11.4 1.846,11.4 0,0 6.583,1.124 6.583,1.686 0,0.562 -6.422,2.408 -6.422,2.408 C 1.606,-10.678 0.803,0 0,0"
             style="fill:#ffffff;fill-opacity:1;fill-rule:nonzero;stroke:none"
             id="path78" />
        </g>
        <g
           id="g80"
           transform="translate(120.6998,319.9272)">
          <path
             d="m 0,0 c -1.606,0 -1.847,-10.597 -1.847,-10.597 0,0 -7.225,-2.248 -7.305,-2.891 -0.081,-0.642 7.065,-1.204 7.065,-1.204 0,0 0.802,-11.48 1.686,-11.48 0.883,0 1.846,11.4 1.846,11.4 0,0 6.583,1.124 6.583,1.686 0,0.562 -6.422,2.408 -6.422,2.408 C 1.606,-10.678 0.803,0 0,0"
             style="fill:#ffffff;fill-opacity:1;fill-rule:nonzero;stroke:none"
             id="path82" />
        </g>
        <g
           id="g84"
           transform="translate(129.2903,452.6249)">
          <path
             d="m 0,0 c -1.606,0 -1.846,-10.597 -1.846,-10.597 0,0 -7.226,-2.248 -7.306,-2.891 -0.081,-0.642 7.065,-1.204 7.065,-1.204 0,0 0.802,-11.48 1.686,-11.48 0.883,0 1.846,11.4 1.846,11.4 0,0 6.583,1.124 6.583,1.686 0,0.562 -6.422,2.408 -6.422,2.408 C 1.606,-10.678 0.803,0 0,0"
             style="fill:#ffffff;fill-opacity:1;fill-rule:nonzero;stroke:none"
             id="path86" />
        </g>
        <g
           id="g88"
           transform="translate(754.5518,829.2878)">
          <path
             d="m 0,0 c -1.606,0 -1.846,-10.597 -1.846,-10.597 0,0 -7.226,-2.248 -7.306,-2.89 -0.081,-0.643 7.065,-1.205 7.065,-1.205 0,0 0.802,-11.48 1.686,-11.48 0.883,0 1.846,11.4 1.846,11.4 0,0 6.583,1.124 6.583,1.686 0,0.562 -6.422,2.408 -6.422,2.408 C 1.606,-10.678 0.803,0 0,0"
             style="fill:#ffffff;fill-opacity:1;fill-rule:nonzero;stroke:none"
             id="path90" />
        </g>
        <g
           id="g92"
           transform="translate(1138.5131,562.0624)">
          <path
             d="m 0,0 c -1.606,0 -1.847,-10.597 -1.847,-10.597 0,0 -7.225,-2.248 -7.305,-2.891 -0.081,-0.642 7.065,-1.204 7.065,-1.204 0,0 0.802,-11.48 1.686,-11.48 0.883,0 1.846,11.4 1.846,11.4 0,0 6.583,1.124 6.583,1.686 0,0.562 -6.422,2.408 -6.422,2.408 C 1.606,-10.678 0.803,0 0,0"
             style="fill:#ffffff;fill-opacity:1;fill-rule:nonzero;stroke:none"
             id="path94" />
        </g>
        <g
           id="g96"
           transform="translate(997.1632,810.4448)">
          <path
             d="m 0,0 c -1.606,0 -1.846,-10.597 -1.846,-10.597 0,0 -7.226,-2.248 -7.306,-2.891 -0.081,-0.642 7.065,-1.204 7.065,-1.204 0,0 0.802,-11.48 1.686,-11.48 0.883,0 1.846,11.4 1.846,11.4 0,0 6.583,1.124 6.583,1.686 0,0.562 -6.422,2.408 -6.422,2.408 C 1.606,-10.678 0.803,0 0,0"
             style="fill:#ffffff;fill-opacity:1;fill-rule:nonzero;stroke:none"
             id="path98" />
        </g>
        <g
           id="g100"
           transform="translate(1164.8396,384.8235)">
          <path
             d="m 0,0 c -1.606,0 -1.847,-10.597 -1.847,-10.597 0,0 -7.225,-2.248 -7.305,-2.891 -0.081,-0.642 7.065,-1.204 7.065,-1.204 0,0 0.802,-11.48 1.686,-11.48 0.883,0 1.846,11.4 1.846,11.4 0,0 6.583,1.124 6.583,1.686 0,0.562 -6.422,2.408 -6.422,2.408 C 1.606,-10.678 0.803,0 0,0"
             style="fill:#ffffff;fill-opacity:1;fill-rule:nonzero;stroke:none"
             id="path102" />
        </g>
        <g
           id="g104"
           transform="translate(272.4389,704.8082)">
          <path
             d="m 0,0 c 3.655,11.382 676.807,25.206 681.359,18.904 4.553,-6.301 -12.14,-455.276 -18.21,-460.002 C 657.079,-445.824 9.105,-444.248 0,-434.796 -9.105,-425.344 -4.553,-14.178 0,0"
             style="fill:#1c458a;fill-opacity:1;fill-rule:nonzero;stroke:none"
             id="path106" />
        </g>
        <g
           id="g108"
           transform="translate(912.7006,632.8066)">
          <path
             d="m 0,0 c -0.144,-6.731 -0.318,-13.896 -0.52,-21.408 -1.011,-36.748 -2.571,-82.105 -4.362,-126.799 -0.694,-17.16 -1.416,-34.234 -2.138,-50.673 -1.069,-23.863 -2.167,-46.513 -3.265,-66.216 -0.115,-2.254 -0.231,-4.478 -0.347,-6.616 -2.108,-37.904 -4.073,-63.616 -5.431,-64.656 -1.416,-1.098 -43.682,-1.791 -104.842,-2.08 -7.078,-0.029 -14.387,-0.058 -21.928,-0.087 -2.311,0 -4.622,0 -6.962,-0.029 -13.203,-0.029 -27.013,-0.029 -41.284,-0.029 -11.383,0 -23.055,0.029 -34.929,0.058 -2.571,-0.029 -5.171,0 -7.771,0 h -1.156 c -10.371,0.029 -20.887,0.058 -31.461,0.087 -18.923,0.087 -38.106,0.173 -57.202,0.318 -2.976,0.028 -5.952,0.028 -8.928,0.057 -9.996,0.058 -19.934,0.145 -29.785,0.232 -19.992,0.173 -39.609,0.375 -58.503,0.606 -7.049,0.087 -14.012,0.173 -20.83,0.289 -9.909,0.145 -19.529,0.289 -28.861,0.462 -73.468,1.243 -126.741,3.092 -129.168,5.518 -1.069,1.098 -1.935,8.494 -2.571,20.455 -0.896,15.196 -1.444,37.875 -1.733,64.453 -0.087,6.587 -0.145,13.406 -0.174,20.397 -0.231,34.004 -0.115,72.456 0.202,109.378 0.116,12.538 0.261,24.903 0.434,36.806 0.751,54.631 1.907,100.74 3.178,116.139 0.231,2.715 0.462,4.449 0.664,5.142 1.011,2.976 56.943,6.154 134.282,8.985 9.447,0.346 19.24,0.693 29.265,1.011 8.667,0.289 17.537,0.578 26.55,0.838 19.848,0.635 40.389,1.242 61.305,1.762 h 0.029 c 44.635,1.185 90.715,2.225 134.195,3.034 h 0.029 c 7.945,0.144 15.774,0.288 23.488,0.433 11.758,0.202 23.256,0.375 34.408,0.549 0.606,0 1.213,0.029 1.82,0.029 4.998,0.086 9.938,0.144 14.792,0.202 4.073,0.058 8.118,0.115 12.076,0.173 73.583,0.896 126.192,0.809 127.376,-0.78 C 0.924,56.74 0.809,34.004 0,0"
             style="fill:#7a9ae5;fill-opacity:1;fill-rule:nonzero;stroke:none"
             id="path110" />
        </g>
        <g
           id="g112"
           transform="translate(832.9432,330.9908)">
          <path
             d="m 0,0 c -2.105,-0.199 -4.263,-0.826 -5.784,-2.295 -1.521,-1.469 -2.214,-3.928 -1.188,-5.778 0.876,-1.579 2.701,-2.347 4.427,-2.879 2.121,-0.654 4.333,-1.126 6.549,-0.987 2.215,0.138 4.449,0.94 5.996,2.533 1.546,1.593 2.284,4.04 1.538,6.13 C 10.02,0.973 3.515,0.333 0,0"
             style="fill:#4970c0;fill-opacity:1;fill-rule:nonzero;stroke:none"
             id="path114" />
        </g>
        <g
           id="g116"
           transform="translate(851.5673,335.4531)">
          <path
             d="M 0,0 C 0.841,0.447 1.313,1.419 1.353,2.37 1.407,3.624 0.779,4.865 -0.198,5.653 -1.175,6.442 -2.468,6.795 -3.722,6.726 -4.454,6.686 -5.202,6.497 -5.772,6.037 -7.029,5.023 -7.216,2.353 -6.087,1.152 -4.928,-0.081 -1.488,-0.791 0,0"
             style="fill:#4970c0;fill-opacity:1;fill-rule:nonzero;stroke:none"
             id="path118" />
        </g>
        <g
           id="g120"
           transform="translate(861.434,321.4681)">
          <path
             d="M 0,0 C 0.683,-0.053 1.417,-0.004 1.971,0.399 2.704,0.933 2.919,2.002 2.605,2.853 2.291,3.704 1.537,4.338 0.701,4.69 -0.134,5.042 -1.052,5.145 -1.958,5.199 -2.842,5.251 -3.784,5.244 -4.536,4.778 -7.957,2.656 -1.605,0.125 0,0"
             style="fill:#4970c0;fill-opacity:1;fill-rule:nonzero;stroke:none"
             id="path122" />
        </g>
        <g
           id="g124"
           transform="translate(396.4939,639.3912)">
          <path
             d="m 0,0 c 0.926,-0.788 2.201,-0.994 3.409,-1.135 1.542,-0.18 3.09,-0.306 4.641,-0.376 0.892,-0.04 1.818,-0.057 2.637,0.297 5.392,2.322 0.045,9.81 -3.86,10.434 C 2.632,9.89 -4.643,3.954 0,0"
             style="fill:#4970c0;fill-opacity:1;fill-rule:nonzero;stroke:none"
             id="path126" />
        </g>
        <g
           id="g128"
           transform="translate(378.7912,632.3398)">
          <path
             d="m 0,0 c -0.017,-0.818 0.487,-1.579 1.143,-2.069 0.656,-0.489 1.451,-0.751 2.236,-0.982 1.217,-0.358 2.471,-0.665 3.738,-0.605 1.267,0.06 2.563,0.531 3.378,1.503 0.815,0.971 1.024,2.491 0.287,3.523 C 10.353,1.97 9.676,2.344 8.986,2.604 7.234,3.266 5.254,3.278 3.481,2.684 2.267,2.278 0.033,1.568 0,0"
             style="fill:#4970c0;fill-opacity:1;fill-rule:nonzero;stroke:none"
             id="path130" />
        </g>
        <g
           id="g132"
           transform="translate(399.0809,629.0026)">
          <path
             d="M 0,0 C 0.382,-0.07 0.802,-0.115 1.138,0.08 1.496,0.288 1.662,0.714 1.75,1.119 1.902,1.817 1.89,2.567 1.604,3.222 1.159,4.241 0.023,4.912 -1.084,4.811 -2.278,4.702 -3.499,3.709 -3.212,2.452 -2.87,0.946 -1.366,0.249 0,0"
             style="fill:#4970c0;fill-opacity:1;fill-rule:nonzero;stroke:none"
             id="path134" />
        </g>
        <g
           id="g136"
           transform="translate(410.5006,364.6629)">
          <path
             d="m 0,0 c -0.296,-1.498 -0.181,-3.104 0.496,-4.473 0.677,-1.369 1.951,-2.471 3.449,-2.772 1.525,-0.307 3.143,0.235 4.354,1.212 1.211,0.977 2.052,2.35 2.636,3.793 0.627,1.548 0.985,3.247 0.715,4.895 C 11.379,4.304 10.41,5.888 8.912,6.627 4.842,8.632 0.681,3.451 0,0"
             style="fill:#4970c0;fill-opacity:1;fill-rule:nonzero;stroke:none"
             id="path138" />
        </g>
        <g
           id="g140"
           transform="translate(392.2597,352.8705)">
          <path
             d="m 0,0 c 0.85,-1.708 2.372,-3.069 4.164,-3.724 1.023,-0.374 2.23,-0.503 3.153,0.076 1.264,0.793 1.486,2.554 1.274,4.031 C 8.295,2.448 7.404,4.423 6.052,6.011 5.199,7.012 4.073,7.899 2.761,7.988 -1.391,8.269 -1.187,2.385 0,0"
             style="fill:#4970c0;fill-opacity:1;fill-rule:nonzero;stroke:none"
             id="path142" />
        </g>
        <g
           id="g144"
           transform="translate(408.9248,340.9736)">
          <path
             d="M 0,0 C 0.54,-0.331 1.174,-0.634 1.784,-0.466 2.474,-0.277 2.873,0.447 3.06,1.137 3.477,2.673 3.205,4.381 2.333,5.712 1.441,7.071 -0.501,8.263 -2.142,8.309 -2.962,8.332 -3.732,8.123 -4.253,7.447 -5.043,6.421 -4.256,4.366 -3.728,3.337 -2.995,1.911 -1.342,0.822 0,0"
             style="fill:#4970c0;fill-opacity:1;fill-rule:nonzero;stroke:none"
             id="path146" />
        </g>
        <g
           id="g148"
           transform="translate(836.8396,611.6559)">
          <path
             d="M 0,0 C 1.646,-0.823 3.73,-0.783 5.274,0.194 5.413,0.282 5.547,0.377 5.676,0.479 9.274,3.34 7.064,7.901 2.831,6.013 1.044,5.216 -3.284,1.642 0,0"
             style="fill:#4970c0;fill-opacity:1;fill-rule:nonzero;stroke:none"
             id="path150" />
        </g>
        <g
           id="g152"
           transform="translate(826.732,596.8258)">
          <path
             d="M 0,0 C 2.551,-0.775 5.764,0.092 6.889,2.509 7.631,4.105 7.33,6.033 6.507,7.589 5.552,9.395 3.887,10.844 1.922,11.401 -0.044,11.958 -2.286,11.568 -3.863,10.269 -8.484,6.462 -4.451,1.353 0,0"
             style="fill:#4970c0;fill-opacity:1;fill-rule:nonzero;stroke:none"
             id="path154" />
        </g>
        <g
           id="g156"
           transform="translate(842.3425,600.8137)">
          <path
             d="M 0,0 C 0.817,-0.591 1.902,-0.973 2.835,-0.59 3.452,-0.336 3.908,0.221 4.168,0.835 4.844,2.426 4.198,4.465 2.729,5.376 1.403,6.199 -1.269,6.075 -2.139,4.553 -3.004,3.041 -1.132,0.818 0,0"
             style="fill:#4970c0;fill-opacity:1;fill-rule:nonzero;stroke:none"
             id="path158" />
        </g>
        <g
           id="g160"
           transform="translate(238.6707,272.1154)">
          <path
             d="m 0,0 c -10.168,-2.287 -2.611,-30.873 1.852,-31.029 11.816,-0.413 716.525,-5.564 720.64,-3.481 4.115,2.083 6.172,24.643 2.058,27.42 C 720.435,-4.313 11.573,2.603 0,0"
             style="fill:#4970c0;fill-opacity:1;fill-rule:nonzero;stroke:none"
             id="path162" />
        </g>
        <g
           id="g164"
           transform="translate(769.8389,622.2617)">
          <path
             d="m 0,0 -0.116,-5.691 -0.086,-4.507 -0.174,-7.685 -1.329,-63.125 -0.693,-32.646 -1.416,-66.389 -0.433,-20.599 -0.202,-8.927 -2.051,-98.024 -0.203,-8.927 -0.231,-11.499 c -13.203,-0.029 -27.012,-0.029 -41.284,-0.029 -11.382,0 -23.054,0.029 -34.928,0.058 -2.571,-0.029 -5.171,0 -7.771,0 h -1.156 c -10.372,0.029 -20.888,0.058 -31.461,0.087 -18.923,0.087 -38.106,0.173 -57.203,0.318 -2.976,0.028 -5.951,0.028 -8.927,0.057 -9.996,0.058 -19.934,0.145 -29.786,0.232 -19.992,0.173 -39.608,0.375 -58.502,0.606 -7.049,0.087 -14.012,0.173 -20.83,0.289 -9.909,0.145 -19.53,0.289 -28.861,0.462 l -3.207,203.098 -0.549,35.275 -0.982,62.865 -0.26,17.276 -0.145,8.378 c -0.346,21.235 3.323,41.602 10.256,60.381 22.968,62.143 81.962,107.009 152.078,108.684 6.269,0.145 12.452,-0.028 18.548,-0.577 48.766,-4.189 91.552,-29.439 119.171,-66.621 5.201,-6.991 9.852,-14.387 13.925,-22.159 0,-0.029 0.029,-0.057 0.029,-0.086 1.994,-3.785 3.814,-7.656 5.518,-11.614 3.467,-8.118 6.298,-16.583 8.465,-25.308 C -1.358,29.699 0.318,15.081 0,0"
             style="fill:#5a1b22;fill-opacity:1;fill-rule:nonzero;stroke:none"
             id="path166" />
        </g>
        <g
           id="g168"
           transform="translate(798.7001,622.2617)">
          <path
             d="m 0,0 -1.618,-76.53 -5.287,-251.373 c -7.078,-0.029 -14.387,-0.058 -21.927,-0.087 -2.312,0 -4.623,0 -6.963,-0.029 -13.203,-0.029 -27.012,-0.029 -41.284,-0.029 -11.383,0 -23.054,0.029 -34.928,0.058 -2.571,-0.029 -5.171,0 -7.772,0 h -1.155 c -10.372,0.029 -20.888,0.058 -31.462,0.087 -18.923,0.087 -38.106,0.173 -57.202,0.318 -2.976,0.028 -5.951,0.028 -8.927,0.057 -9.996,0.058 -19.934,0.145 -29.786,0.232 -19.992,0.173 -39.608,0.375 -58.502,0.606 -7.05,0.087 -14.012,0.173 -20.83,0.289 l -3.207,205.842 -0.578,35.997 -0.953,61.045 -0.26,17.652 -0.116,6.818 c -0.346,21.61 3.438,42.324 10.632,61.392 22.072,58.531 76.212,101.52 141.359,107.096 3.409,0.318 6.876,0.491 10.343,0.577 45.791,1.127 87.566,-16.322 118.305,-45.357 12.423,-11.758 23.055,-25.394 31.404,-40.475 2.658,-4.796 5.113,-9.765 7.28,-14.821 1.473,-3.438 2.831,-6.933 4.074,-10.487 C -2.889,40.533 0.433,20.685 0,0"
             style="fill:#f15b61;fill-opacity:1;fill-rule:nonzero;stroke:none"
             id="path170" />
        </g>
        <g
           id="g172"
           transform="translate(468.444,616.5275)">
          <path
             d="M 0,0 -36.744,-1.984 V -19.201 L 0,-17.682 Z"
             style="fill:#f15b61;fill-opacity:1;fill-rule:nonzero;stroke:none"
             id="path174" />
        </g>
        <g
           id="g176"
           transform="translate(470.6896,538.0416)">
          <path
             d="M 0,0 -38.99,-4.051 V -39.202 L 0,-36.1 Z"
             style="fill:#f15b61;fill-opacity:1;fill-rule:nonzero;stroke:none"
             id="path178" />
        </g>
        <g
           id="g180"
           transform="translate(628.8052,764.5941)">
          <path
             d="m 0,0 v 0 c -79.56,-1.937 -142.674,-67.665 -141.382,-147.238 l 289.803,-0.829 C 150.235,-65.412 82.65,2.012 0,0"
             style="fill:#ff8591;fill-opacity:1;fill-rule:nonzero;stroke:none"
             id="path182" />
        </g>
        <g
           id="g184"
           transform="translate(630.4875,729.2964)">
          <path
             d="M 0,0 V 0 C -41.616,-1.013 -74.629,-35.394 -73.954,-77.017 L 77.635,-77.45 C 78.585,-34.216 43.232,1.052 0,0"
             style="fill:#b73743;fill-opacity:1;fill-rule:nonzero;stroke:none"
             id="path186" />
        </g>
        <g
           id="g188"
           transform="translate(483.5203,604.3749)">
          <path
             d="m 0,0 1.013,-70.455 293.689,7.596 V 0 Z"
             style="fill:#b73743;fill-opacity:1;fill-rule:nonzero;stroke:none"
             id="path190" />
        </g>
        <g
           id="g192"
           transform="translate(724.0599,592.572)">
          <path
             d="m 0,0 h -186.308 c -2.673,0 -4.83,-2.188 -4.791,-4.861 l 0.533,-37.141 c 0.039,-2.667 2.249,-4.79 4.916,-4.721 l 185.774,4.804 c 2.597,0.067 4.668,2.192 4.668,4.791 V -4.792 C 4.792,-2.145 2.647,0 0,0"
             style="fill:#5a1b22;fill-opacity:1;fill-rule:nonzero;stroke:none"
             id="path194" />
        </g>
        <g
           id="g196"
           transform="translate(769.8679,508.6656)">
          <path
             d="m 0,0 v -214.394 c -2.311,0 -4.623,0 -6.963,-0.029 -13.202,-0.029 -27.012,-0.029 -41.284,-0.029 -11.382,0 -23.054,0.029 -34.928,0.058 -2.571,-0.029 -5.171,0 -7.771,0 h -1.156 c -10.372,0.029 -20.888,0.058 -31.461,0.087 -18.923,0.087 -38.106,0.173 -57.203,0.318 -2.976,0.029 -5.951,0.029 -8.927,0.057 -9.996,0.058 -19.934,0.145 -29.786,0.232 -19.992,0.173 -39.608,0.375 -58.502,0.606 V -7.598 l 85.775,2.34 8.927,0.26 55.036,1.502 33.628,0.896 8.927,0.26 30.103,0.809 25.597,0.722 27.561,0.751 z"
             style="fill:#ffe9d4;fill-opacity:1;fill-rule:nonzero;stroke:none"
             id="path198" />
        </g>
        <g
           id="g200"
           transform="translate(589.1021,294.6762)">
          <path
             d="m 0,0 c -2.976,0.029 -5.951,0.029 -8.927,0.058 l -0.087,9.129 -0.115,8.927 -0.607,48.94 -0.607,49.056 -0.086,8.927 -1.012,83.694 v 0.029 l -0.115,9.736 8.927,0.087 0.116,-9.592 1.011,-83.868 0.086,-8.927 0.347,-29.15 0.838,-68.845 0.144,-8.927 z"
             style="fill:#f15b61;fill-opacity:1;fill-rule:nonzero;stroke:none"
             id="path202" />
        </g>
        <g
           id="g204"
           transform="translate(686.693,294.2719)">
          <path
             d="m 0,0 c -2.571,-0.029 -5.171,0 -7.771,0 h -1.156 l -0.116,10.603 -0.086,8.927 -0.925,75.547 -0.26,22.419 -0.115,8.927 -1.011,85.371 -0.087,7.107 8.927,0.086 0.087,-6.933 v -0.029 l 1.011,-85.486 0.057,-4.565 0.058,-4.362 1.098,-91.322 0.087,-6.674 0.086,-8.927 z"
             style="fill:#f15b61;fill-opacity:1;fill-rule:nonzero;stroke:none"
             id="path206" />
        </g>
        <g
           id="g208"
           transform="translate(481.5408,409.7739)">
          <path
             d="m 0,0 -0.093,8.925 294.702,3.038 0.093,-8.924 z"
             style="fill:#f15b61;fill-opacity:1;fill-rule:nonzero;stroke:none"
             id="path210" />
        </g>
        <g
           id="g212"
           transform="translate(481.5408,302.8588)">
          <path
             d="m 0,0 -0.093,8.925 294.702,3.038 0.093,-8.924 z"
             style="fill:#f15b61;fill-opacity:1;fill-rule:nonzero;stroke:none"
             id="path214" />
        </g>
        <g
           id="g216">
          <g
             id="g218" />
          <g
             id="g234">
            <g
               clip-path="url(#clipPath222)"
               opacity="0.300003"
               id="g232">
              <g
                 transform="translate(777.986,706.4476)"
                 id="g226">
                <path
                   d="m 0,0 -4.796,-14.994 -5.951,-18.634 -2.196,-6.905 -15.774,-49.287 -3.9,-12.249 -20.541,-64.252 -10.545,-32.992 -27.59,-86.324 -1.444,-4.565 -1.416,-4.391 -7.194,-22.505 -24.21,-75.808 -2.86,-8.956 -3.264,-10.227 c -18.923,0.087 -38.106,0.173 -57.203,0.318 -2.976,0.029 -5.951,0.029 -8.927,0.057 -9.996,0.058 -19.934,0.145 -29.786,0.232 l 3.727,8.638 3.9,8.956 21.35,49.171 8.667,19.992 12.712,29.265 3.9,8.985 36.979,85.197 14.417,33.195 4.622,10.632 18.894,43.566 5.143,11.816 5.373,12.394 15.225,35.073 2.716,6.24 14.156,32.588 13.347,30.768 1.589,3.64 9.476,21.841 C -18.981,28.717 -8.349,15.081 0,0"
                   style="fill:#ffffff;fill-opacity:1;fill-rule:nonzero;stroke:none"
                   id="path224" />
              </g>
              <g
                 transform="translate(798.7001,622.2617)"
                 id="g230">
                <path
                   d="m 0,0 -1.618,-76.53 -27.214,-90.715 -3.843,-12.798 -6.182,-20.657 -2.687,-8.956 -29.497,-98.284 -2.687,-8.956 -3.351,-11.152 c -11.383,0 -23.054,0.029 -34.928,0.058 -2.571,-0.029 -5.171,0 -7.772,0 l 3.034,10.632 2.542,8.956 1.907,6.702 26.146,91.582 2.571,8.956 24.759,86.757 9.389,32.906 18.172,63.616 2.196,7.685 1.271,4.507 5.489,19.154 v 0.029 L -9.36,58.878 C -2.889,40.533 0.433,20.685 0,0"
                   style="fill:#ffffff;fill-opacity:1;fill-rule:nonzero;stroke:none"
                   id="path228" />
              </g>
            </g>
          </g>
        </g>
        <g
           id="g236"
           transform="translate(1028.0106,367.0811)">
          <path
             d="m 0,0 c -3.567,-0.09 -24.76,-103.531 -20.574,-106.574 4.187,-3.043 173.245,-44.18 176.392,-42.854 3.147,1.326 25.551,103.604 25.073,107.068 C 180.413,-38.896 5.966,0.15 0,0"
             style="fill:#ffe9d4;fill-opacity:1;fill-rule:nonzero;stroke:none"
             id="path238" />
        </g>
        <g
           id="g240"
           transform="translate(1031.2957,362.3903)">
          <path
             d="M 0,0 72.349,-79.858 172.824,-40.471 76.069,-63.969 Z"
             style="fill:#fdd3b1;fill-opacity:1;fill-rule:nonzero;stroke:none"
             id="path242" />
        </g>
        <g
           id="g244"
           transform="translate(1011.1133,266.2963)">
          <path
             d="M 0,0 64.911,49.262 77.33,37.329 Z"
             style="fill:#fdd3b1;fill-opacity:1;fill-rule:nonzero;stroke:none"
             id="path246" />
        </g>
        <g
           id="g248"
           transform="translate(1179.3452,226.9003)">
          <path
             d="M 0,0 -36.29,72.961 -52.716,67.783 Z"
             style="fill:#fdd3b1;fill-opacity:1;fill-rule:nonzero;stroke:none"
             id="path250" />
        </g>
        <g
           id="g252">
          <g
             id="g254" />
          <g
             id="g266">
            <g
               clip-path="url(#clipPath258)"
               opacity="0.5"
               id="g264">
              <g
                 transform="translate(1121.3423,322.9906)"
                 id="g262">
                <path
                   d="m 0,0 c -1.77,-7.557 -21.863,-9.314 -44.88,-3.924 -23.017,5.39 -40.241,15.886 -38.471,23.443 1.769,7.557 21.863,9.314 44.88,3.924 C -15.454,18.053 1.77,7.557 0,0"
                   style="fill:#ffffff;fill-opacity:1;fill-rule:nonzero;stroke:none"
                   id="path260" />
              </g>
            </g>
          </g>
        </g>
        <g
           id="g268"
           transform="translate(194.7068,688.2375)">
          <path
             d="m 0,0 c -2.63,-1.659 27.661,-88.541 32.152,-88.951 4.492,-0.41 149.388,44.23 151.151,46.626 1.764,2.397 -27.101,88.949 -29.004,91.328 C 152.395,51.383 4.398,2.774 0,0"
             style="fill:#ffe9d4;fill-opacity:1;fill-rule:nonzero;stroke:none"
             id="path270" />
        </g>
        <g
           id="g272"
           transform="translate(199.2586,686.1921)">
          <path
             d="M 0,0 89.785,-27.494 147.418,46.818 85.481,-13.941 Z"
             style="fill:#fdd3b1;fill-opacity:1;fill-rule:nonzero;stroke:none"
             id="path274" />
        </g>
        <g
           id="g276"
           transform="translate(227.0276,605.2599)">
          <path
             d="m 0,0 26.607,65.836 14.62,-3.391 z"
             style="fill:#fdd3b1;fill-opacity:1;fill-rule:nonzero;stroke:none"
             id="path278" />
        </g>
        <g
           id="g280"
           transform="translate(370.5283,650.8341)">
          <path
             d="M 0,0 -59.717,38.42 -69.702,27.215 Z"
             style="fill:#fdd3b1;fill-opacity:1;fill-rule:nonzero;stroke:none"
             id="path282" />
        </g>
        <g
           id="g284">
          <g
             id="g286" />
          <g
             id="g298">
            <g
               clip-path="url(#clipPath290)"
               opacity="0.5"
               id="g296">
              <g
                 transform="translate(284.2387,696.8785)"
                 id="g294">
                <path
                   d="m 0,0 c 2.047,-6.446 -12.209,-16.727 -31.842,-22.962 -19.633,-6.236 -37.209,-6.064 -39.256,0.382 -2.048,6.446 12.209,16.727 31.842,22.962 C -19.623,6.618 -2.047,6.446 0,0"
                   style="fill:#ffffff;fill-opacity:1;fill-rule:nonzero;stroke:none"
                   id="path292" />
              </g>
            </g>
          </g>
        </g>
        <g
           id="g300"
           transform="translate(851.7459,324.8282)">
          <path
             d="m 0,0 -29.871,-35.277 c 2.298,-7.84 20.41,-9.867 20.41,-9.867 L 9.326,-3.785 Z"
             style="fill:#082143;fill-opacity:1;fill-rule:nonzero;stroke:none"
             id="path302" />
        </g>
        <g
           id="g304"
           transform="translate(1000.8965,554.253)">
          <path
             d="m 0,0 29.871,35.277 c -2.298,7.84 -20.41,9.867 -20.41,9.867 L -9.326,3.785 Z"
             style="fill:#082143;fill-opacity:1;fill-rule:nonzero;stroke:none"
             id="path306" />
        </g>
        <g
           id="g308"
           transform="translate(930.8319,271.7291)">
          <path
             d="m 0,0 c -32.867,0 -66.298,9.129 -96.001,26.734 l 8.638,14.573 C -48.255,18.126 -2.178,11.06 39.049,21.916 c 35.847,9.439 64.444,31.251 82.701,63.077 23.444,40.871 30.234,88.221 18.626,129.909 -9.64,34.623 -31.131,62.027 -62.15,79.251 l 8.224,14.81 C 121.521,289.49 145.812,258.535 156.695,219.446 169.511,173.419 162.13,121.341 136.444,76.565 115.88,40.715 83.694,16.154 43.363,5.534 29.28,1.826 14.695,0 0,0"
             style="fill:#082143;fill-opacity:1;fill-rule:nonzero;stroke:none"
             id="path310" />
        </g>
        <g
           id="g312"
           transform="translate(940.007,280.4949)">
          <path
             d="m 0,0 h -35.413 c 0.271,-10.813 -12.705,-28.384 -12.705,-28.384 H 12.165 C 12.165,-28.384 0.513,-8.408 0,0"
             style="fill:#082143;fill-opacity:1;fill-rule:nonzero;stroke:none"
             id="path314" />
        </g>
        <g
           id="g316"
           transform="translate(823.1365,221.474)">
          <path
             d="m 0,0 h 198.599 c 0,0 -5.046,22.707 -13.697,28.835 -8.65,6.127 -157.56,7.208 -168.888,1.802 C 4.686,25.23 0,0 0,0"
             style="fill:#1c458a;fill-opacity:1;fill-rule:nonzero;stroke:none"
             id="path318" />
        </g>
        <g
           id="g320"
           transform="translate(1051.4452,378.895)">
          <path
             d="m 0,0 c -0.085,-0.169 -0.169,-0.318 -0.233,-0.487 -7.115,-14.315 -16.983,-27.083 -28.883,-37.883 -0.064,-0.063 -0.148,-0.127 -0.212,-0.191 h -0.021 c -0.085,-0.084 -0.17,-0.148 -0.254,-0.232 -16.284,-14.611 -36.316,-25.601 -58.296,-31.912 -0.381,-0.127 -0.763,-0.233 -1.144,-0.339 -11.625,-3.261 -23.78,-5.23 -36.189,-5.738 -7.707,-0.318 -15.246,0.021 -22.573,0.974 -0.232,0.021 -0.487,0.063 -0.72,0.106 -18.422,2.52 -35.447,8.936 -50.418,18.359 -0.148,0.106 -0.318,0.191 -0.466,0.296 -5.633,3.6 -10.99,7.602 -16.009,12.007 -6.606,5.781 -12.642,12.239 -18.02,19.227 -0.148,0.212 -0.318,0.424 -0.466,0.635 -9.127,11.986 -16.347,25.58 -21.26,40.213 -0.127,0.36 -0.233,0.72 -0.36,1.08 -4.574,14.039 -7.03,28.989 -7.03,44.426 0,11.096 1.313,21.768 3.811,31.911 0.043,0.212 0.085,0.402 0.148,0.614 4.744,18.952 13.553,36.062 25.475,50.736 0.084,0.149 0.211,0.276 0.338,0.424 13.277,16.22 30.387,29.413 49.974,38.709 0.297,0.148 0.572,0.275 0.869,0.402 4.934,2.308 10.016,4.362 15.225,6.162 13.107,4.51 27.041,7.369 41.482,8.386 9.551,0.656 18.783,0.233 27.613,-1.207 0.72,-0.106 1.419,-0.233 2.139,-0.382 4.892,-0.868 9.635,-2.032 14.272,-3.515 0.318,-0.084 0.614,-0.19 0.932,-0.296 7.475,-2.435 14.611,-5.59 21.345,-9.423 2.626,-1.483 5.188,-3.049 7.686,-4.743 0.149,-0.085 0.297,-0.191 0.466,-0.297 10.228,-6.903 19.418,-15.331 27.423,-24.966 0.19,-0.19 0.338,-0.402 0.487,-0.593 4.785,-5.781 9.126,-12.006 12.959,-18.571 0.466,-0.741 0.91,-1.482 1.313,-2.244 C -0.19,116.867 5.887,100.414 9.254,83.114 9.317,82.838 9.381,82.542 9.423,82.245 10.778,75.13 11.689,67.889 12.091,60.541 13.341,38.434 8.83,17.999 0,0"
             style="fill:#f15b61;fill-opacity:1;fill-rule:nonzero;stroke:none"
             id="path322" />
        </g>
        <g
           id="g324"
           transform="translate(960.8779,460.2299)">
          <path
             d="m 0,0 c -3.409,-7.856 -13.679,-9.232 -21.218,-13.256 -13.298,-7.115 -18.486,-26.088 -10.651,-38.984 3.812,-6.247 9.91,-10.757 14.145,-16.707 4.235,-5.972 6.141,-14.865 1.165,-20.223 -2.965,-3.176 -7.602,-4.235 -11.964,-4.192 -14.59,0.127 -33.585,14.505 -30.599,30.831 0.995,5.463 3.896,10.397 5.273,15.776 1.376,5.378 0.72,12.006 -3.854,15.14 -4.976,3.431 -11.731,1.08 -17.258,-1.355 -5.485,-2.393 -12.832,-7.411 -18.846,-7.242 -5.04,0.148 -12.282,2.35 -15.585,6.31 -3.876,4.871 -2.436,12.324 1.291,17.301 3.727,4.997 9.212,8.279 14.145,12.091 4.934,3.811 9.635,8.703 10.525,14.865 1.588,11.011 -9.91,19.968 -20.922,21.387 -6.818,0.889 -15.225,-1.165 -17.321,-7.708 -1.186,-3.684 0.021,-7.644 0.148,-11.498 0.297,-11.096 -8.28,-20.117 -15.162,-28.841 -6.86,-8.745 -12.493,-21.26 -6.246,-30.45 4.743,-7.009 14.314,-8.682 22.763,-8.386 14.357,0.466 32.25,2.33 42.245,-10.588 1.948,-2.541 3.473,-5.907 2.308,-8.893 -1.397,-3.6 -5.908,-4.828 -9.761,-4.765 -5.379,0.085 -10.736,1.694 -16.073,0.89 -5.315,-0.805 -10.736,-5.464 -9.571,-10.715 1.567,-7.009 12.43,-7.899 15.077,-14.59 2.033,-5.124 -1.969,-10.651 -6.353,-13.997 -6.479,-4.976 -14.399,-7.708 -22.552,-8.576 -29.137,25.516 -47.136,63.865 -47.136,105.581 0,61.366 40.36,109.879 95.84,128.958 2.605,-2.393 5.548,-4.447 8.894,-6.077 10.863,-5.252 23.547,-3.346 35.066,-5.866 4.172,-0.91 8.64,-2.731 10.503,-6.585 2.562,-5.315 -1.376,-11.837 -6.585,-14.632 -5.231,-2.796 -11.35,-3.05 -17.174,-4.215 -5.103,-0.995 -10.418,-2.985 -13.467,-7.22 -3.049,-4.235 -2.647,-11.202 1.927,-13.722 5.929,-3.282 15.987,1.44 18.719,-4.764 2.35,-5.337 -5.252,-10.44 -4.722,-16.221 0.296,-3.24 3.176,-5.738 6.289,-6.691 3.113,-0.953 6.437,-0.699 9.677,-0.572 6.924,0.275 14.209,-0.191 20.074,-3.854 C -1.08,14.082 2.753,6.353 0,0"
             style="fill:#b73743;fill-opacity:1;fill-rule:nonzero;stroke:none"
             id="path326" />
        </g>
        <g
           id="g328"
           transform="translate(1022.1173,340.3345)">
          <path
             d="m 0,0 h -0.021 c -6.501,-0.085 -13.002,-0.191 -19.503,-0.275 -4.531,-0.064 -9.126,-0.127 -13.425,1.207 -4.32,1.355 -8.364,4.362 -9.783,8.639 -3.685,11.223 11.731,21.98 8.47,33.33 -1.969,6.819 -10.312,11.308 -9.91,18.402 0.212,3.557 2.774,6.628 5.866,8.428 3.07,1.779 6.649,2.499 10.143,3.197 12.747,2.499 25.474,5.019 38.2,7.539 5.569,1.101 12.43,3.642 12.6,9.296 0.19,5.399 -6.417,8.618 -11.774,8.004 C 0.275,96.539 -8.534,86.396 -19.1,87.899 c -7.814,1.101 -13.701,9.678 -11.922,17.364 1.715,7.454 9.317,14.272 6.395,21.345 -2.965,7.157 -14.039,6.946 -18.465,13.319 -3.558,5.146 -1.038,12.684 3.79,16.665 4.849,3.981 11.266,5.337 17.406,6.607 6.141,1.25 12.558,2.69 17.28,6.798 4.743,4.086 7.009,11.773 3.197,16.749 -5.4,7.052 -16.855,3.388 -25.072,6.776 -7.305,3.029 -11.117,12.24 -8.766,19.799 1.016,3.283 3.049,6.141 5.654,8.301 C 11.689,198.308 38.539,150.727 41.419,99.101 43.664,59.058 27.062,24.479 0,0"
             style="fill:#b73743;fill-opacity:1;fill-rule:nonzero;stroke:none"
             id="path330" />
        </g>
        <g
           id="g332">
          <g
             id="g334" />
          <g
             id="g346">
            <g
               clip-path="url(#clipPath338)"
               opacity="0.5"
               id="g344">
              <g
                 transform="translate(955.0478,549.9796)"
                 id="g342">
                <path
                   d="m 0,0 c 10.295,-17.832 -9.636,-48.613 -44.518,-68.752 -34.881,-20.139 -71.504,-22.009 -81.799,-4.177 -10.295,17.832 9.636,48.613 44.517,68.752 C -46.918,15.962 -10.295,17.832 0,0"
                   style="fill:#ffffff;fill-opacity:1;fill-rule:nonzero;stroke:none"
                   id="path340" />
              </g>
            </g>
          </g>
        </g>
        <g
           id="g348">
          <g
             id="g350" />
          <g
             id="g362">
            <g
               clip-path="url(#clipPath354)"
               opacity="0.5"
               id="g360">
              <g
                 transform="translate(996.855,418.3873)"
                 id="g358">
                <path
                   d="m 0,0 c -22.827,15.733 -46.141,30.789 -69.837,45.167 14.717,22.044 30.599,43.304 47.497,63.59 C -5.167,99.249 11.032,88.005 26.406,75.745 21.281,50.037 12.43,24.542 0,0 m -9.635,-17.639 c -7.898,-13.447 -16.813,-26.448 -26.723,-38.984 -25.009,10.355 -49.254,22.636 -72.441,36.676 11.794,22.17 24.711,43.769 38.666,64.67 23.716,-14.379 47.031,-29.456 69.879,-45.189 -2.922,-5.781 -6.056,-11.519 -9.381,-17.173 m -66.893,-82.288 c -20.307,6.459 -39.937,15.077 -58.465,25.643 7.898,18.233 16.538,36.189 25.897,53.786 3.113,-1.884 6.226,-3.727 9.381,-5.548 20.371,-11.795 41.419,-22.149 62.954,-31.064 -11.858,-14.971 -25.135,-29.265 -39.767,-42.817 m -58.931,25.919 c -14.379,8.258 -28.1,17.681 -40.933,28.184 3.304,21.811 8.386,42.245 15.226,61.24 16.411,-12.811 33.626,-24.712 51.583,-35.596 -9.36,-17.618 -17.978,-35.575 -25.876,-53.828 m -5.781,132.537 c 3.981,6.84 8.279,13.404 12.874,19.693 19.482,-10.609 38.73,-21.684 57.704,-33.182 -2.88,-4.32 -5.739,-8.64 -8.534,-13.023 -10.736,-16.792 -20.752,-34.05 -30.112,-51.647 -17.893,10.863 -35.151,22.764 -51.647,35.639 5.485,15.098 12.049,29.285 19.715,42.52 m 67.528,72.06 c 7.941,-2.456 15.797,-5.209 23.505,-8.386 9.402,-3.854 18.507,-8.3 27.359,-13.171 -16.92,-20.286 -32.801,-41.525 -47.518,-63.547 -18.973,11.498 -38.201,22.552 -57.682,33.161 15.331,20.878 33.902,38.539 54.336,51.943 m 42.859,20.794 c 10.228,-5.188 20.117,-11.075 29.582,-17.575 -7.242,-7.941 -14.314,-16.094 -21.217,-24.373 -8.894,4.912 -18.063,9.38 -27.507,13.255 -7.602,3.135 -15.331,5.845 -23.145,8.28 13.425,8.746 27.655,15.649 42.287,20.413 m 30.027,-17.872 c 11.202,-7.729 21.832,-16.326 31.657,-25.664 -0.804,-10.503 -2.244,-21.028 -4.298,-31.51 -15.31,12.176 -31.425,23.357 -48.534,32.844 6.903,8.258 13.954,16.389 21.175,24.33 M 26.893,75.385 C 39.81,65.051 52.155,54.04 64.013,42.753 63.971,43.05 63.907,43.346 63.844,43.621 52.07,54.844 39.831,65.75 26.999,75.977 c 2.075,10.44 3.515,20.922 4.341,31.404 5.103,-4.892 10.016,-9.953 14.653,-15.226 -0.402,0.763 -0.847,1.504 -1.313,2.245 -4.235,4.701 -8.682,9.254 -13.298,13.658 0.127,1.631 0.233,3.282 0.339,4.913 -0.148,0.19 -0.297,0.402 -0.487,0.593 -0.106,-1.673 -0.212,-3.367 -0.339,-5.061 -9.762,9.254 -20.265,17.745 -31.361,25.389 1.419,1.546 2.816,3.092 4.278,4.638 -0.17,0.106 -0.318,0.211 -0.466,0.296 -1.44,-1.524 -2.859,-3.07 -4.257,-4.616 -9.359,6.437 -19.121,12.239 -29.222,17.406 1.483,0.466 2.965,0.932 4.447,1.376 -0.317,0.107 -0.614,0.212 -0.932,0.297 -1.418,-0.424 -2.837,-0.868 -4.235,-1.313 -3.303,1.673 -6.649,3.303 -10.037,4.828 -0.72,0.148 -1.419,0.275 -2.139,0.381 3.854,-1.694 7.687,-3.515 11.456,-5.421 -14.653,-4.785 -28.819,-11.646 -42.372,-20.54 -17.512,5.4 -35.469,9.317 -53.404,12.621 -0.297,-0.127 -0.572,-0.254 -0.868,-0.402 18.041,-3.304 36.104,-7.2 53.701,-12.6 -4.299,-2.859 -8.555,-5.908 -12.727,-9.169 -15.352,-11.985 -29.328,-26.554 -41.229,-42.796 -16.411,8.937 -32.991,17.555 -49.719,25.856 -0.127,-0.149 -0.255,-0.276 -0.339,-0.424 16.75,-8.301 33.309,-16.919 49.72,-25.855 -4.617,-6.331 -8.936,-12.875 -12.896,-19.672 -7.666,-13.192 -14.209,-27.38 -19.672,-42.436 -14.886,11.647 -29.138,24.056 -42.626,37.227 -0.064,-0.212 -0.106,-0.402 -0.149,-0.614 13.468,-13.15 27.677,-25.559 42.542,-37.205 -6.84,-18.974 -11.943,-39.408 -15.268,-61.176 -8.406,6.903 -16.453,14.251 -24.055,22.043 0.127,-0.36 0.233,-0.72 0.36,-1.08 7.433,-7.559 15.352,-14.738 23.611,-21.493 -0.932,-6.141 -1.715,-12.366 -2.351,-18.719 0.148,-0.212 0.318,-0.423 0.466,-0.635 0.635,6.437 1.44,12.748 2.372,18.952 12.769,-10.397 26.448,-19.82 40.847,-28.058 -3.176,-7.348 -6.268,-14.717 -9.19,-22.128 -0.466,-1.165 -0.932,-2.308 -1.376,-3.473 l 0.508,-0.19 c 0.445,1.122 0.889,2.244 1.334,3.367 2.922,7.432 6.014,14.801 9.19,22.149 2.626,-1.503 5.294,-2.986 7.983,-4.426 16.136,-8.576 33.013,-15.648 50.271,-21.175 -5.485,-5.082 -11.16,-10.058 -17.025,-14.907 0.233,-0.043 0.487,-0.085 0.72,-0.106 5.823,4.828 11.456,9.783 16.898,14.822 13.764,-4.362 27.782,-7.75 41.863,-10.058 0.382,0.106 0.763,0.212 1.144,0.339 -14.463,2.287 -28.714,5.675 -42.626,10.079 14.59,13.553 27.846,27.846 39.683,42.796 20.01,-8.258 40.466,-15.268 61.239,-20.964 0.085,0.085 0.169,0.149 0.254,0.233 h 0.021 c 0.064,0.064 0.149,0.127 0.212,0.191 -20.815,5.696 -41.292,12.747 -61.324,21.027 9.889,12.515 18.783,25.495 26.66,38.921 3.324,5.653 6.458,11.371 9.38,17.152 18.36,-12.663 36.422,-25.729 54.167,-39.217 0.064,0.169 0.149,0.317 0.233,0.487 -17.745,13.488 -35.786,26.533 -54.145,39.196 12.409,24.521 21.281,49.995 26.448,75.681"
                   style="fill:#ffffff;fill-opacity:1;fill-rule:nonzero;stroke:none"
                   id="path356" />
              </g>
            </g>
          </g>
        </g>
        <g
           id="g364"
           transform="translate(515.151,220.7654)">
          <path
             d="m 0,0 c -0.899,-0.497 -15.229,-1.014 -37.402,-1.473 -4.764,-0.096 -9.891,-0.192 -15.324,-0.287 -61.718,-1.052 -163.095,-1.779 -223.301,-1.454 -5.568,0.038 -10.79,0.076 -15.592,0.134 -19.993,0.191 -32.753,0.555 -33.71,1.129 -4.878,2.927 -15.458,91.007 -3.405,93.782 1.148,0.267 12.512,0.593 30.342,0.937 4.687,0.076 9.814,0.172 15.324,0.268 58.887,0.918 161.163,1.741 224.22,1.109 5.491,-0.057 10.694,-0.114 15.535,-0.191 23.627,-0.383 38.875,-1.071 39.391,-2.123 C -1.473,86.952 4.4,2.449 0,0"
             style="fill:#b73743;fill-opacity:1;fill-rule:nonzero;stroke:none"
             id="path366" />
        </g>
        <g
           id="g368"
           transform="translate(267.2973,283.3404)">
          <path
             d="m 0,0 c -6.043,-1.022 -0.735,-33.424 1.716,-34.503 2.452,-1.078 161.067,-0.179 163.273,0.719 2.207,0.899 -0.735,31.987 -1.961,33.784 C 161.802,1.797 3.187,0.539 0,0"
             style="fill:#ffffff;fill-opacity:1;fill-rule:nonzero;stroke:none"
             id="path370" />
        </g>
        <g
           id="g372"
           transform="translate(477.7491,219.2922)">
          <path
             d="m 0,0 c -4.764,-0.096 -9.891,-0.191 -15.324,-0.287 1.607,32.141 -0.383,64.224 -6.122,95.906 5.49,-0.058 10.694,-0.115 15.534,-0.192 C -0.459,63.899 1.55,31.969 0,0"
             style="fill:#ffcf0b;fill-opacity:1;fill-rule:nonzero;stroke:none"
             id="path374" />
        </g>
        <g
           id="g376"
           transform="translate(239.1237,217.5512)">
          <path
             d="m 0,0 c -5.567,0.038 -10.79,0.077 -15.592,0.134 -6.065,31.567 -8.38,63.707 -6.773,95.848 4.688,0.077 9.815,0.172 15.325,0.268 C -8.686,63.937 -6.352,31.701 0,0"
             style="fill:#ffcf0b;fill-opacity:1;fill-rule:nonzero;stroke:none"
             id="path378" />
        </g>
        <g
           id="g380"
           transform="translate(274.562,551.791)">
          <path
             d="m 0,0 c -4.789,-2.874 -4.789,-230.366 0,-234.677 4.789,-4.31 173.852,-4.789 176.247,0 2.395,4.79 -0.958,227.972 -2.874,231.803 C 171.458,0.958 0,0 0,0"
             style="fill:#1c458a;fill-opacity:1;fill-rule:nonzero;stroke:none"
             id="path382" />
        </g>
        <g
           id="g384"
           transform="translate(438.1972,542.0528)">
          <path
             d="m 0,0 c -3.353,3.512 -39.432,2.714 -39.432,2.714 l 5.587,-224.3 c 0,0 36.878,-0.638 39.432,1.916 C 8.142,-217.116 3.353,-3.512 0,0"
             style="fill:#ffffff;fill-opacity:1;fill-rule:nonzero;stroke:none"
             id="path386" />
        </g>
        <g
           id="g388"
           transform="translate(425.4256,526.5673)">
          <path
             d="M 0,0 2.235,-177.524"
             style="fill:none;stroke:#ffe9d4;stroke-width:1.427;stroke-linecap:round;stroke-linejoin:round;stroke-miterlimit:10;stroke-dasharray:none;stroke-opacity:1"
             id="path390" />
        </g>
        <g
           id="g392"
           transform="translate(434.6849,508.0486)">
          <path
             d="M 0,0 1.916,-144.957"
             style="fill:none;stroke:#ffe9d4;stroke-width:1.427;stroke-linecap:round;stroke-linejoin:round;stroke-miterlimit:10;stroke-dasharray:none;stroke-opacity:1"
             id="path394" />
        </g>
        <g
           id="g396"
           transform="translate(419.9977,507.41)">
          <path
             d="M 0,0 0.319,-140.806"
             style="fill:none;stroke:#ffe9d4;stroke-width:1.427;stroke-linecap:round;stroke-linejoin:round;stroke-miterlimit:10;stroke-dasharray:none;stroke-opacity:1"
             id="path398" />
        </g>
        <g
           id="g400"
           transform="translate(413.4599,317.1173)">
          <path
             d="m 0,0 c -2.403,-4.78 -171.477,-4.325 -176.257,0 -2.048,1.846 -3.212,44.564 -3.515,93.073 -0.101,15.402 -0.101,31.387 -0.025,46.84 0.025,4.628 0.075,9.206 0.101,13.708 0.076,8.118 0.177,15.984 0.303,23.42 0.557,32.525 1.594,56.703 3.136,57.639 0,0 17.78,0.101 41.934,0.101 9.433,0 19.854,0 30.552,-0.05 2.706,0 5.463,-0.026 8.22,-0.026 15.579,-0.076 31.437,-0.202 45.499,-0.43 26.354,-0.43 46.511,-1.188 47.169,-2.478 C -0.961,227.978 2.377,4.78 0,0"
             style="fill:#4970c0;fill-opacity:1;fill-rule:nonzero;stroke:none"
             id="path402" />
        </g>
        <g
           id="g404"
           transform="translate(263.6594,525.9287)">
          <path
             d="m 0,0 c -2.862,-3.501 -3.355,-75.991 0,-78.864 3.355,-2.874 114.743,-1.916 116.757,0 2.013,1.916 3.019,75.671 0,76.948 C 113.737,-0.639 2.349,2.874 0,0"
             style="fill:#f15b61;fill-opacity:1;fill-rule:nonzero;stroke:none"
             id="path406" />
        </g>
        <g
           id="g408"
           transform="translate(251.0943,540.616)">
          <path
             d="M 0,0 C -6.226,-97.805 0,-216.637 0,-216.637"
             style="fill:none;stroke:#082143;stroke-width:1.427;stroke-linecap:round;stroke-linejoin:round;stroke-miterlimit:10;stroke-dasharray:none;stroke-opacity:1"
             id="path410" />
        </g>
        <g
           id="g412"
           transform="translate(356.6453,503.4994)">
          <path
             d="M 0,0 -68.247,0.958 -68.141,8.461 0.105,7.503 Z"
             style="fill:#ffffff;fill-opacity:1;fill-rule:nonzero;stroke:none"
             id="path414" />
        </g>
        <g
           id="g416"
           transform="translate(367.6199,485.4318)">
          <path
             d="M 0,0 -90.119,0.359 -90.09,7.862 0.029,7.503 Z"
             style="fill:#ffffff;fill-opacity:1;fill-rule:nonzero;stroke:none"
             id="path418" />
        </g>
        <g
           id="g420"
           transform="translate(367.6199,469.2456)">
          <path
             d="M 0,0 -90.119,0.359 -90.09,7.862 0.029,7.503 Z"
             style="fill:#ffffff;fill-opacity:1;fill-rule:nonzero;stroke:none"
             id="path422" />
        </g>
        <g
           id="g424">
          <g
             id="g426" />
          <g
             id="g442">
            <g
               clip-path="url(#clipPath430)"
               opacity="0.5"
               id="g440">
              <g
                 transform="translate(279.1367,551.8984)"
                 id="g434">
                <path
                   d="m 0,0 c -14.998,-19.247 -30.046,-38.494 -45.07,-57.74 -0.126,-7.436 -0.227,-15.302 -0.303,-23.42 25.595,26.783 50.887,53.82 75.925,81.11 C 19.854,0 9.434,0 0,0"
                   style="fill:#ffffff;fill-opacity:1;fill-rule:nonzero;stroke:none"
                   id="path432" />
              </g>
              <g
                 transform="translate(317.9086,551.8227)"
                 id="g438">
                <path
                   d="m 0,0 c -27.264,-32.297 -55.363,-63.912 -84.246,-94.793 -0.076,-15.453 -0.076,-31.437 0.025,-46.84 C -40.972,-94.565 2.276,-47.498 45.499,-0.43 31.437,-0.202 15.58,-0.076 0,0"
                   style="fill:#ffffff;fill-opacity:1;fill-rule:nonzero;stroke:none"
                   id="path436" />
              </g>
            </g>
          </g>
        </g>
        <g
           id="g444"
           transform="translate(478.4849,176.76)">
          <path
             d="M 0,0 H -148.498 V 23.604 L -2.434,26.17 Z"
             style="fill:#082143;fill-opacity:1;fill-rule:nonzero;stroke:none"
             id="path446" />
        </g>
        <path
           d="m 406.62,201.09 h -4.767 v 211.503 h 4.767 z"
           style="fill:#082143;fill-opacity:1;fill-rule:nonzero;stroke:none"
           id="path448" />
        <g
           id="g450"
           transform="translate(556.8949,308.4432)">
          <path
             d="m 0,0 -2.511,0.066 -6.278,0.132 -6.278,0.132 -44.605,1.014 -3.326,0.088 -3.282,0.066 -17.578,0.396 -3.304,0.066 -3.304,0.089 -6.322,0.132 -28.018,0.639 -6.102,0.132 -11.718,0.264 -3.172,0.066 -2.159,0.066 -2.159,0.044 h -0.044 v 97.845 H -3.943 l 0.088,-2.269 0.022,-0.506 0.198,-4.912 0.133,-3.833 0.154,-3.855 0.771,-19.846 0.264,-6.608 0.683,-17.578 0.264,-6.608 0.903,-23.57 0.177,-4.075 0.154,-4.031 z"
             style="fill:#1c458a;fill-opacity:1;fill-rule:nonzero;stroke:none"
             id="path452" />
        </g>
        <g
           id="g454"
           transform="translate(472.3323,361.8373)">
          <path
             d="m 0,0 -7.974,5.176 -1.299,0.837 -5.089,3.304 -5.066,3.305 -6.674,4.339 -37.292,24.23 -2.203,1.432 v -7.886 l 2.203,-1.432 31.829,-20.683 1.784,-1.168 3.304,-2.137 5.066,-3.304 8.944,-5.815 6.013,-3.899 -12.093,-7.863 -5.088,-3.304 -5.089,-3.304 -2.158,-1.41 -32.512,-21.124 -2.203,-1.432 v -7.864 h 0.044 l 2.159,1.41 10.991,7.137 35.816,23.283 4.406,2.863 0.683,0.441 5.088,3.304 12.093,7.863 z m 84.276,-45.817 -0.176,4.075 -36.279,23.57 -10.177,6.608 -6.189,4.031 -5.903,3.832 14.956,9.714 5.088,3.304 5,3.26 c 0.023,0 0.045,0.023 0.045,0.045 h 0.022 L 81.214,32.468 81.06,36.323 80.928,40.156 68.681,32.204 38.548,12.622 33.459,9.317 28.393,6.013 13.437,-3.701 l 12.092,-7.863 1.256,-0.815 3.833,-2.489 5.066,-3.304 48.746,-31.676 z m -56.345,27.645 -4.164,2.709 -0.925,0.595 -4.559,2.973 -8.723,5.661 -8.855,-5.749 -4.428,-2.885 -5.088,-3.304 -11.696,-7.6 -37.557,-24.406 11.719,-0.264 12.864,8.37 27.578,17.93 3.304,2.137 3.304,2.158 8.855,5.75 8.723,-5.661 0.77,-0.507 2.512,-1.63 3.326,-2.159 44.605,-29.01 6.278,-0.132 6.277,-0.132 z m -42.293,27.489 -5.066,3.305 -6.674,4.339 -37.292,24.23 v -3.943 l 35.463,-23.041 2.445,-1.585 5.089,-3.305 5.066,-3.304 h 6.058 z m 4.141,-6.63 8.15,-5.286 C -1.366,-1.718 -0.683,-0.859 0,0 L -7.974,5.176 C -8.723,4.339 -9.472,3.502 -10.221,2.687 M 80.708,45.574 80.62,47.843 H 72.866 L 24.891,16.653 21.565,14.494 18.283,12.357 9.56,6.696 6.762,8.503 l -6.057,3.942 -1.41,0.925 -1.894,1.234 -3.304,2.137 -14.34,9.317 -33.503,21.785 h -11.851 v -0.176 l 2.203,-1.432 39.583,-25.728 12.115,-7.885 L -6.608,9.317 -5.132,8.37 -1.52,6.013 2.643,3.304 9.56,-1.19 l 11.079,7.203 10.177,6.609 48.812,31.741 1.102,0.705 z"
             style="fill:#ffffff;fill-opacity:1;fill-rule:nonzero;stroke:none"
             id="path456" />
        </g>
        <g
           id="g458"
           transform="translate(556.8949,308.4432)">
          <path
             d="m 0,0 -2.511,0.066 -6.278,0.132 -50.883,33.085 -3.326,2.159 -0.132,0.088 -3.15,2.048 -8.723,5.661 -8.855,-5.749 -3.304,-2.158 -3.304,-2.137 -21.08,-13.701 -25.221,-16.41 -5.859,0.132 -3.172,0.066 -2.159,0.066 -2.159,0.044 h -0.044 v 3.899 l 2.203,1.432 22.248,14.472 18.502,12.027 10.177,6.608 6.762,4.405 5.331,3.458 -1.696,1.102 -8.15,5.286 -5.111,3.327 -5.066,3.304 -5.088,3.304 -2.445,1.586 -35.464,23.04 -2.203,1.432 v 9.163 h 5.771 l 37.799,-24.56 16.124,-10.485 2.996,-1.938 0.308,-0.199 3.304,-2.158 4.009,-2.6 4.846,-3.149 8.723,5.66 3.282,2.137 3.326,2.159 54.055,35.133 h 1.674 l 0.088,-2.269 0.022,-0.506 0.198,-4.912 0.133,-3.833 -21.235,-13.811 -15.22,-9.89 -5.089,-3.304 -5.066,-3.304 -14.957,-9.715 9.626,-6.255 2.467,-1.608 10.177,-6.608 42.513,-27.645 0.154,-4.031 z"
             style="fill:#b73743;fill-opacity:1;fill-rule:nonzero;stroke:none"
             id="path460" />
        </g>
        <g
           id="g462"
           transform="translate(555.2648,350.273)">
          <path
             d="m 0,0 h -64.65 v -40.332 l 3.282,-0.066 3.326,-0.088 V -6.608 H 0.264 Z M -88.836,59.407 V 24.186 h -59.694 v -6.608 h 66.302 V 59.407 Z M -0.947,24.186 H -58.042 V 59.407 H -64.65 V 17.578 H -0.683 Z M -148.53,0 v -6.608 h 59.694 v -33.173 l 3.304,-0.088 3.304,-0.066 V 0 Z"
             style="fill:#ffffff;fill-opacity:1;fill-rule:nonzero;stroke:none"
             id="path464" />
        </g>
        <g
           id="g466"
           transform="translate(555.397,346.9689)">
          <path
             d="m 0,0 h -61.5 v -37.094 l -3.282,0.066 -17.578,0.397 -3.304,0.066 V 0 h -62.998 v 24.186 h 62.998 V 62.711 H -61.5 V 24.186 h 60.553 l 0.132,-3.304 0.683,-17.578 z"
             style="fill:#b73743;fill-opacity:1;fill-rule:nonzero;stroke:none"
             id="path468" />
        </g>
        <g
           id="g470">
          <g
             id="g472" />
          <g
             id="g488">
            <g
               clip-path="url(#clipPath476)"
               opacity="0.5"
               id="g486">
              <g
                 transform="translate(500.6373,409.6804)"
                 id="g480">
                <path
                   d="m 0,0 c -1.123,-1.41 -2.247,-2.819 -3.414,-4.207 -1.079,-1.366 -2.203,-2.732 -3.326,-4.075 -1.08,-1.344 -2.181,-2.665 -3.282,-3.965 -5.749,-6.961 -11.631,-13.833 -17.578,-20.618 -0.463,-0.55 -0.925,-1.079 -1.41,-1.608 -0.617,-0.726 -1.255,-1.431 -1.894,-2.136 -0.088,-0.132 -0.198,-0.265 -0.309,-0.375 -0.462,-0.528 -0.903,-1.035 -1.387,-1.542 -0.265,-0.33 -0.529,-0.638 -0.837,-0.947 -0.683,-0.793 -1.388,-1.564 -2.093,-2.357 -0.242,-0.286 -0.484,-0.55 -0.749,-0.837 -0.749,-0.837 -1.498,-1.674 -2.247,-2.489 -0.749,-0.837 -1.497,-1.674 -2.246,-2.489 -3.569,-3.965 -7.181,-7.886 -10.838,-11.762 -1.013,-1.102 -2.048,-2.203 -3.106,-3.304 -1.035,-1.102 -2.07,-2.203 -3.128,-3.305 -0.44,-0.484 -0.881,-0.947 -1.343,-1.409 -3.392,-3.569 -6.806,-7.093 -10.265,-10.617 -3.722,-3.789 -7.467,-7.556 -11.256,-11.256 -2.929,-2.93 -5.881,-5.794 -8.833,-8.657 l -2.158,0.066 -2.159,0.044 h -0.044 v 12.467 c 0.727,0.926 1.476,1.873 2.203,2.798 4.317,5.463 8.546,10.969 12.687,16.564 0.837,1.102 1.652,2.181 2.445,3.305 0.815,1.079 1.63,2.18 2.423,3.304 4.208,5.793 8.349,11.652 12.38,17.577 0.771,1.102 1.52,2.203 2.247,3.304 0.484,0.705 0.969,1.432 1.431,2.137 0.265,0.397 0.529,0.771 0.793,1.167 0.353,0.529 0.705,1.058 1.058,1.586 0.594,0.926 1.211,1.829 1.828,2.754 0.771,1.189 1.52,2.357 2.291,3.546 0.616,0.925 1.211,1.85 1.784,2.776 0.617,0.925 1.189,1.85 1.784,2.775 4.56,7.181 9.009,14.45 13.304,21.785 z"
                   style="fill:#ffffff;fill-opacity:1;fill-rule:nonzero;stroke:none"
                   id="path478" />
              </g>
              <g
                 transform="translate(553.0402,407.4117)"
                 id="g484">
                <path
                   d="m 0,0 c -0.353,-0.397 -0.705,-0.815 -1.079,-1.212 -3.613,-4.075 -7.247,-8.128 -10.948,-12.159 -2.93,-3.238 -5.881,-6.476 -8.855,-9.692 -3.04,-3.304 -6.101,-6.608 -9.185,-9.89 0,-0.022 -0.022,-0.044 -0.044,-0.044 -1.014,-1.101 -2.027,-2.181 -3.062,-3.26 -1.035,-1.101 -2.071,-2.203 -3.106,-3.304 -4.295,-4.56 -8.613,-9.075 -12.974,-13.547 -0.749,-0.815 -1.542,-1.63 -2.335,-2.423 -0.506,-0.55 -1.035,-1.079 -1.564,-1.608 -0.242,-0.286 -0.506,-0.55 -0.771,-0.815 -0.815,-0.837 -1.63,-1.674 -2.445,-2.489 -0.176,-0.198 -0.374,-0.396 -0.572,-0.595 -0.727,-0.748 -1.454,-1.497 -2.203,-2.246 -0.044,-0.044 -0.088,-0.088 -0.132,-0.155 -0.793,-0.793 -1.586,-1.608 -2.379,-2.4 -0.243,-0.265 -0.507,-0.507 -0.771,-0.771 -5.815,-5.904 -11.675,-11.763 -17.578,-17.578 l -3.304,-3.238 c -1.101,-1.101 -2.203,-2.159 -3.304,-3.238 -2.115,-2.049 -4.207,-4.097 -6.322,-6.124 l -28.019,0.639 c 2.247,2.842 4.516,5.661 6.763,8.503 2.18,2.731 4.339,5.462 6.498,8.172 2.158,2.709 4.317,5.418 6.476,8.128 2.026,2.533 4.031,5.066 6.057,7.599 0.749,0.969 1.52,1.917 2.269,2.864 0.11,0.154 0.242,0.308 0.353,0.44 0.881,1.102 1.762,2.203 2.621,3.304 1.167,1.476 2.335,2.952 3.502,4.406 1.212,1.52 2.423,3.04 3.635,4.559 0.705,0.881 1.387,1.741 2.07,2.6 0.881,1.101 1.762,2.202 2.643,3.304 0.683,0.881 1.366,1.74 2.071,2.599 0.683,0.881 1.366,1.74 2.049,2.599 3.854,4.824 7.687,9.648 11.52,14.472 1.101,1.388 2.18,2.753 3.282,4.119 1.101,1.41 2.225,2.797 3.326,4.185 4.405,5.529 8.789,11.058 13.194,16.565 h 42.535 z"
                   style="fill:#ffffff;fill-opacity:1;fill-rule:nonzero;stroke:none"
                   id="path482" />
              </g>
            </g>
          </g>
        </g>
        <g
           id="g490"
           transform="translate(846.9229,219.0051)">
          <path
             d="M 0,0 C 0,5.024 -4.073,9.097 -9.097,9.097 H -22.62 V -9.097 H -9.097 C -4.073,-9.097 0,-5.024 0,0"
             style="fill:#ffcf0b;fill-opacity:1;fill-rule:nonzero;stroke:none"
             id="path492" />
        </g>
        <path
           d="M 698.231,239.72 H 720.36 V 198.29 H 698.231 Z"
           style="fill:#082143;fill-opacity:1;fill-rule:nonzero;stroke:none"
           id="path494" />
        <g
           id="g496"
           transform="translate(581.871,229.5778)">
          <path
             d="m 0,0 -24.341,-4.18 v -12.908 l 25.939,-4.18 z"
             style="fill:#1c458a;fill-opacity:1;fill-rule:nonzero;stroke:none"
             id="path498" />
        </g>
        <path
           d="m 816.312,232.036 h 13.277 v -26.063 h -13.277 z"
           style="fill:#082143;fill-opacity:1;fill-rule:nonzero;stroke:none"
           id="path500" />
        <g
           id="g502"
           transform="translate(712.6758,193.1885)">
          <path
             d="M 0,0 V 51.633 L 111.627,44.626 V 6.393 Z"
             style="fill:#f15b61;fill-opacity:1;fill-rule:nonzero;stroke:none"
             id="path504" />
        </g>
        <g
           id="g506"
           transform="translate(704.3162,242.8549)">
          <path
             d="m 0,0 v -49.666 c -41.635,0.491 -83.269,4.097 -124.904,10.818 V -8.851 C -83.269,-2.623 -41.635,0.328 0,0"
             style="fill:#f15b61;fill-opacity:1;fill-rule:nonzero;stroke:none"
             id="path508" />
        </g>
        <g
           id="g510">
          <g
             id="g512" />
          <g
             id="g524">
            <g
               clip-path="url(#clipPath516)"
               opacity="0.5"
               id="g522">
              <g
                 transform="translate(726.1989,228.1024)"
                 id="g520">
                <path
                   d="m 0,0 c 0,-6.094 -17.253,-11.035 -38.536,-11.035 -21.283,0 -38.537,4.941 -38.537,11.035 0,6.094 17.254,11.035 38.537,11.035 C -17.253,11.035 0,6.094 0,0"
                   style="fill:#ffffff;fill-opacity:1;fill-rule:nonzero;stroke:none"
                   id="path518" />
              </g>
            </g>
          </g>
        </g>
        <g
           id="g526"
           transform="translate(798.5472,242.8795)">
          <path
             d="m 0,0 2.397,-48.462 -18.932,-1.229 -1.352,50.527 z"
             style="fill:#082143;fill-opacity:1;fill-rule:nonzero;stroke:none"
             id="path528" />
        </g>
        <g
           id="g530"
           transform="translate(800.0795,211.904)">
          <path
             d="m 0,0 -70.561,-1.996 0.86,-9.958 70.486,-3.92 z"
             style="fill:#1c458a;fill-opacity:1;fill-rule:nonzero;stroke:none"
             id="path532" />
        </g>
      </g>
    </g>
    <text
       xml:space="preserve"
       transform="matrix(1,0,0,-1,81.3828,976.3643)"
       style="font-variant:normal;font-weight:normal;font-stretch:normal;font-size:25.6937px;font-family:'Josefin Sans';-inkscape-font-specification:JosefinSans-Regular;writing-mode:lr-tb;fill:#ffffff;fill-opacity:1;fill-rule:nonzero;stroke:none"
       id="text546"><tspan
         x="0 20.041086 34.044151 55.241455 212.97508 230.98636 246.22273 260.2258 274.25455 283.47861 291.59781 310.37988 443.80728 461.6387 475.64178 489.8504 499.07443 512.43518 526.6438"
         y="0"
         sodipodi:role="line"
         id="tspan534">HomeAbout UsContent</tspan><tspan
         x="670.96527 688.79669 702.7998 717.00836 726.23242 741.28894 753.00525"
         y="0"
         sodipodi:role="line"
         id="tspan536">Contact</tspan><tspan
         x="1627.2848 1643.2662 1657.2693 1672.6342"
         y="0"
         sodipodi:role="line"
         id="tspan538">Logo</tspan><tspan
         x="1587.1255 1603.1071 1616.4678 1631.5243 1641.1851 1655.3937 1663.5129 1684.7102 1698.7133 1707.9116"
         y="623.56042"
         sodipodi:role="line"
         id="tspan540">Learn more</tspan><tspan
         x="1156.4734 1172.455 1186.458 1195.6564 1209.0171 1230.2144 1238.3336 1244.8597 1260.0961 1270.5535 1284.5823 1305.7795 1313.8987 1329.1351 1343.1382 1349.6643 1363.6675 1373.3282 1381.4475 1391.9048 1398.431 1407.655 1415.7743 1430.8308 1452.0281 1465.3888 1474.6128 1479.8286 1487.9479 1499.6642 1513.6672 1527.8759 1538.3333 1551.694 1563.4103 1572.6343 1585.995 1595.2191 1609.2478 1622.6085 1632.2694 1640.3885 1655.4451 1670.6814 1677.2076 1692.444 1698.9702 1709.4276 1721.1439 1727.67 1741.8787 1757.2435"
         y="452.54315"
         sodipodi:role="line"
         id="tspan542">Lorem ipsum dolor sit amet, consectetuer adipiscing </tspan><tspan
         x="1317.9326 1331.2933 1337.8196 1344.3458 1353.5698 1358.7856 1366.9048 1377.3622 1390.7229 1405.9592 1414.0785 1429.3148 1435.8411 1450.8976 1472.0948 1480.2141 1494.4227 1508.4258 1522.6344 1536.6631 1557.8605 1579.0063 1591.699 1599.8182 1614.0269 1620.5531 1635.7894 1649.998 1658.1172 1671.4779 1685.5067 1692.033 1702.4902 1723.6875 1737.6907 1752.927"
         y="483.37558"
         sodipodi:role="line"
         id="tspan544">elit, sed diam nonummy nibh euismod.</tspan></text>
    <text
       xml:space="preserve"
       transform="matrix(1,0,0,-1,1240.4941,577.5303)"
       style="font-variant:normal;font-weight:normal;font-stretch:normal;font-size:124.975px;font-family:'Lilita One';-inkscape-font-specification:LilitaOne;writing-mode:lr-tb;fill:#000000;fill-opacity:1;fill-rule:nonzero;stroke:none"
       id="text550"><tspan
         x="0 54.364254 115.10225 161.09315 200.3354 256.57428 280.06964 346.43152 392.42245 460.409 531.02002"
         y="0"
         sodipodi:role="line"
         id="tspan548">Lets Study</tspan></text>
  </g>
</svg>
